<svg width="148" height="98" viewBox="0 0 148 98" fill="none" xmlns="http://www.w3.org/2000/svg">
<g filter="url(#filter0_d_637_587)">
<rect x="50" y="25" width="48" height="48" rx="24" fill="#14F195" shape-rendering="crispEdges"/>
<path d="M72.65 56.11V41.89C72.65 40.54 72.08 40 70.64 40H67.01C65.57 40 65 40.54 65 41.89V56.11C65 57.46 65.57 58 67.01 58H70.64C72.08 58 72.65 57.46 72.65 56.11Z" fill="#262629"/>
<path d="M83 56.11V41.89C83 40.54 82.43 40 80.99 40H77.36C75.93 40 75.35 40.54 75.35 41.89V56.11C75.35 57.46 75.92 58 77.36 58H80.99C82.43 58 83 57.46 83 56.11Z" fill="#262629"/>
</g>
<defs>
<filter id="filter0_d_637_587" x="0" y="0" width="148" height="148" filterUnits="userSpaceOnUse" color-interpolation-filters="sRGB">
<feFlood flood-opacity="0" result="BackgroundImageFix"/>
<feColorMatrix in="SourceAlpha" type="matrix" values="0 0 0 0 0 0 0 0 0 0 0 0 0 0 0 0 0 0 127 0" result="hardAlpha"/>
<feOffset dy="25"/>
<feGaussianBlur stdDeviation="25"/>
<feComposite in2="hardAlpha" operator="out"/>
<feColorMatrix type="matrix" values="0 0 0 0 0.0784314 0 0 0 0 0.945098 0 0 0 0 0.584314 0 0 0 0.15 0"/>
<feBlend mode="normal" in2="BackgroundImageFix" result="effect1_dropShadow_637_587"/>
<feBlend mode="normal" in="SourceGraphic" in2="effect1_dropShadow_637_587" result="shape"/>
</filter>
</defs>
</svg>
