<svg width="259" height="12" viewBox="0 0 259 12" fill="none" xmlns="http://www.w3.org/2000/svg">
<path d="M3.39 10.12C2.81667 10.12 2.30333 9.98 1.85 9.7C1.39667 9.41333 1.04 9 0.78 8.46C0.52 7.92 0.39 7.26667 0.39 6.5C0.39 5.73333 0.52 5.08 0.78 4.54C1.04 4 1.39667 3.59 1.85 3.31C2.30333 3.02333 2.81667 2.88 3.39 2.88C3.97 2.88 4.48333 3.02333 4.93 3.31C5.38333 3.59 5.74 4 6 4.54C6.26 5.08 6.39 5.73333 6.39 6.5C6.39 7.26667 6.26 7.92 6 8.46C5.74 9 5.38333 9.41333 4.93 9.7C4.48333 9.98 3.97 10.12 3.39 10.12ZM3.39 8.75C3.66333 8.75 3.9 8.67333 4.1 8.52C4.30667 8.36667 4.46667 8.12333 4.58 7.79C4.7 7.45667 4.76 7.02667 4.76 6.5C4.76 5.97333 4.7 5.54333 4.58 5.21C4.46667 4.87667 4.30667 4.63333 4.1 4.48C3.9 4.32667 3.66333 4.25 3.39 4.25C3.12333 4.25 2.88667 4.32667 2.68 4.48C2.48 4.63333 2.32 4.87667 2.2 5.21C2.08667 5.54333 2.03 5.97333 2.03 6.5C2.03 7.02667 2.08667 7.45667 2.2 7.79C2.32 8.12333 2.48 8.36667 2.68 8.52C2.88667 8.67333 3.12333 8.75 3.39 8.75ZM8.89711 6.49C8.63044 6.49 8.40044 6.4 8.20711 6.22C8.02044 6.03333 7.92711 5.79667 7.92711 5.51C7.92711 5.22333 8.02044 4.99333 8.20711 4.82C8.40044 4.64 8.63044 4.55 8.89711 4.55C9.17044 4.55 9.40044 4.64 9.58711 4.82C9.77378 4.99333 9.86711 5.22333 9.86711 5.51C9.86711 5.79667 9.77378 6.03333 9.58711 6.22C9.40044 6.4 9.17044 6.49 8.89711 6.49ZM8.89711 10.08C8.63044 10.08 8.40044 9.99 8.20711 9.81C8.02044 9.62333 7.92711 9.38667 7.92711 9.1C7.92711 8.81333 8.02044 8.58333 8.20711 8.41C8.40044 8.23 8.63044 8.14 8.89711 8.14C9.17044 8.14 9.40044 8.23 9.58711 8.41C9.77378 8.58333 9.86711 8.81333 9.86711 9.1C9.86711 9.38667 9.77378 9.62333 9.58711 9.81C9.40044 9.99 9.17044 10.08 8.89711 10.08ZM14.3943 10.12C13.821 10.12 13.3076 9.98 12.8543 9.7C12.401 9.41333 12.0443 9 11.7843 8.46C11.5243 7.92 11.3943 7.26667 11.3943 6.5C11.3943 5.73333 11.5243 5.08 11.7843 4.54C12.0443 4 12.401 3.59 12.8543 3.31C13.3076 3.02333 13.821 2.88 14.3943 2.88C14.9743 2.88 15.4876 3.02333 15.9343 3.31C16.3876 3.59 16.7443 4 17.0043 4.54C17.2643 5.08 17.3943 5.73333 17.3943 6.5C17.3943 7.26667 17.2643 7.92 17.0043 8.46C16.7443 9 16.3876 9.41333 15.9343 9.7C15.4876 9.98 14.9743 10.12 14.3943 10.12ZM14.3943 8.75C14.6676 8.75 14.9043 8.67333 15.1043 8.52C15.311 8.36667 15.471 8.12333 15.5843 7.79C15.7043 7.45667 15.7643 7.02667 15.7643 6.5C15.7643 5.97333 15.7043 5.54333 15.5843 5.21C15.471 4.87667 15.311 4.63333 15.1043 4.48C14.9043 4.32667 14.6676 4.25 14.3943 4.25C14.1276 4.25 13.891 4.32667 13.6843 4.48C13.4843 4.63333 13.3243 4.87667 13.2043 5.21C13.091 5.54333 13.0343 5.97333 13.0343 6.5C13.0343 7.02667 13.091 7.45667 13.2043 7.79C13.3243 8.12333 13.4843 8.36667 13.6843 8.52C13.891 8.67333 14.1276 8.75 14.3943 8.75ZM21.9814 10.12C21.4081 10.12 20.8947 9.98 20.4414 9.7C19.9881 9.41333 19.6314 9 19.3714 8.46C19.1114 7.92 18.9814 7.26667 18.9814 6.5C18.9814 5.73333 19.1114 5.08 19.3714 4.54C19.6314 4 19.9881 3.59 20.4414 3.31C20.8947 3.02333 21.4081 2.88 21.9814 2.88C22.5614 2.88 23.0747 3.02333 23.5214 3.31C23.9747 3.59 24.3314 4 24.5914 4.54C24.8514 5.08 24.9814 5.73333 24.9814 6.5C24.9814 7.26667 24.8514 7.92 24.5914 8.46C24.3314 9 23.9747 9.41333 23.5214 9.7C23.0747 9.98 22.5614 10.12 21.9814 10.12ZM21.9814 8.75C22.2547 8.75 22.4914 8.67333 22.6914 8.52C22.8981 8.36667 23.0581 8.12333 23.1714 7.79C23.2914 7.45667 23.3514 7.02667 23.3514 6.5C23.3514 5.97333 23.2914 5.54333 23.1714 5.21C23.0581 4.87667 22.8981 4.63333 22.6914 4.48C22.4914 4.32667 22.2547 4.25 21.9814 4.25C21.7147 4.25 21.4781 4.32667 21.2714 4.48C21.0714 4.63333 20.9114 4.87667 20.7914 5.21C20.6781 5.54333 20.6214 5.97333 20.6214 6.5C20.6214 7.02667 20.6781 7.45667 20.7914 7.79C20.9114 8.12333 21.0714 8.36667 21.2714 8.52C21.4781 8.67333 21.7147 8.75 21.9814 8.75Z" fill="#9898A0"/>
<rect x="34" y="4" width="192" height="4" rx="2" fill="#56565D"/>
<path d="M34 6C34 4.89543 34.8954 4 36 4H82V8H36C34.8954 8 34 7.10457 34 6Z" fill="#14F195"/>
<path d="M236.66 10.12C236.173 10.12 235.69 10.0567 235.21 9.93C234.73 9.79667 234.323 9.61 233.99 9.37L234.62 8.13C234.887 8.32333 235.197 8.47667 235.55 8.59C235.903 8.70333 236.26 8.76 236.62 8.76C237.027 8.76 237.347 8.68 237.58 8.52C237.813 8.36 237.93 8.14 237.93 7.86C237.93 7.59333 237.827 7.38333 237.62 7.23C237.413 7.07667 237.08 7 236.62 7H235.88V5.93L237.83 3.72L238.01 4.3H234.34V3H239.24V4.05L237.3 6.26L236.48 5.79H236.95C237.81 5.79 238.46 5.98333 238.9 6.37C239.34 6.75667 239.56 7.25333 239.56 7.86C239.56 8.25333 239.457 8.62333 239.25 8.97C239.043 9.31 238.727 9.58667 238.3 9.8C237.873 10.0133 237.327 10.12 236.66 10.12ZM242.028 6.49C241.761 6.49 241.531 6.4 241.338 6.22C241.151 6.03333 241.058 5.79667 241.058 5.51C241.058 5.22333 241.151 4.99333 241.338 4.82C241.531 4.64 241.761 4.55 242.028 4.55C242.301 4.55 242.531 4.64 242.718 4.82C242.905 4.99333 242.998 5.22333 242.998 5.51C242.998 5.79667 242.905 6.03333 242.718 6.22C242.531 6.4 242.301 6.49 242.028 6.49ZM242.028 10.08C241.761 10.08 241.531 9.99 241.338 9.81C241.151 9.62333 241.058 9.38667 241.058 9.1C241.058 8.81333 241.151 8.58333 241.338 8.41C241.531 8.23 241.761 8.14 242.028 8.14C242.301 8.14 242.531 8.23 242.718 8.41C242.905 8.58333 242.998 8.81333 242.998 9.1C242.998 9.38667 242.905 9.62333 242.718 9.81C242.531 9.99 242.301 10.08 242.028 10.08ZM244.445 8.53V7.44L247.745 3H249.445L246.215 7.44L245.425 7.21H250.935V8.53H244.445ZM248.215 10V8.53L248.265 7.21V5.9H249.795V10H248.215ZM254.65 2.88C255.297 2.88 255.854 3.01333 256.32 3.28C256.787 3.54667 257.147 3.93667 257.4 4.45C257.654 4.95667 257.78 5.59 257.78 6.35C257.78 7.15667 257.627 7.84 257.32 8.4C257.02 8.96 256.604 9.38667 256.07 9.68C255.537 9.97333 254.917 10.12 254.21 10.12C253.844 10.12 253.49 10.08 253.15 10C252.81 9.92 252.517 9.8 252.27 9.64L252.87 8.45C253.064 8.58333 253.27 8.67667 253.49 8.73C253.71 8.77667 253.94 8.8 254.18 8.8C254.78 8.8 255.257 8.61667 255.61 8.25C255.97 7.88333 256.15 7.34 256.15 6.62C256.15 6.5 256.147 6.36667 256.14 6.22C256.134 6.07333 256.117 5.92667 256.09 5.78L256.53 6.2C256.417 6.46 256.257 6.68 256.05 6.86C255.844 7.03333 255.604 7.16667 255.33 7.26C255.057 7.34667 254.75 7.39 254.41 7.39C253.964 7.39 253.557 7.3 253.19 7.12C252.83 6.94 252.54 6.68667 252.32 6.36C252.107 6.03333 252 5.65 252 5.21C252 4.73 252.117 4.31667 252.35 3.97C252.59 3.62333 252.91 3.35667 253.31 3.17C253.717 2.97667 254.164 2.88 254.65 2.88ZM254.75 4.09C254.517 4.09 254.314 4.13333 254.14 4.22C253.967 4.3 253.83 4.42 253.73 4.58C253.63 4.73333 253.58 4.91667 253.58 5.13C253.58 5.45 253.687 5.70667 253.9 5.9C254.12 6.08667 254.41 6.18 254.77 6.18C255.004 6.18 255.21 6.13667 255.39 6.05C255.577 5.95667 255.72 5.83 255.82 5.67C255.92 5.51 255.97 5.33 255.97 5.13C255.97 4.93 255.92 4.75333 255.82 4.6C255.727 4.44 255.59 4.31667 255.41 4.23C255.23 4.13667 255.01 4.09 254.75 4.09Z" fill="#9898A0"/>
</svg>
